<svg xmlns="http://www.w3.org/2000/svg" viewBox="0 0 24 24" fill="none">
  <rect width="24" height="24" rx="6" fill="#111111"/>
  <path d="M13.45 10.15c-.15-1.2-.92-1.82-2.2-1.82-1.35 0-2.32.76-2.73 2.13l-1.5-.42c.6-1.95 2.13-3.04 4.34-3.04 2.3 0 3.72 1.18 3.94 3.28 1.18.25 1.9 1.1 1.9 2.3 0 2.06-1.62 3.44-4.06 3.44-2.84 0-4.74-1.72-4.74-4.28 0-.35.03-.67.1-.98h1.58c-.08.28-.12.58-.12.9 0 1.72 1.23 2.9 3.1 2.9 1.52 0 2.5-.76 2.5-1.88 0-.76-.45-1.22-1.38-1.4-.4 1.02-1.32 1.55-2.6 1.55-1.25 0-2.08-.63-2.08-1.62 0-1.12.92-1.82 2.38-1.82.53 0 1.04.07 1.57.18Zm-1.53 1.18c-.78 0-1.2.25-1.2.67 0 .37.33.6.87.6.7 0 1.2-.33 1.42-.92a4.16 4.16 0 0 0-1.1-.15Z" fill="white"/>
</svg>
